<svg xmlns:svg="http://www.w3.org/2000/svg" xmlns="http://www.w3.org/2000/svg" version="1.1" id="svg4496" width="1024" height="512" viewBox="0 0 1024 512">
<path d="M393 342.1C382.3 328.7 276 181.5 276 180.1c0-0.9 5.6-18.6 12.5-39.2L301 103.4 314.4 90.7C321.8 83.7 328.3 78 328.8 78c0.5 0 9.1 3.6 19.2 8C382.3 101.1 410.7 113 412.4 113c2.1 0 21.3-7.6 41.1-16.4C461.7 93 469.4 90 470.5 90c2.2 0 38.6 11 61.7 18.6 7.5 2.5 15.4 5.7 17.5 7.1 12.2 8.3 35.4 27.5 45.8 37.8 6.6 6.6 18.2 17.6 25.7 24.4l13.7 12.4 2.9 8.1c1.6 4.5 4.6 14.9 6.7 23.1 2 8.2 4.2 15.5 4.7 16.2 1.3 1.7 17 6.5 32 9.9 6.7 1.5 12.6 3.1 13.1 3.5 1 0.8 0.3 4.2-4.1 22.9-1.4 5.8-3 11-3.7 11.7-2.1 2.2-48.3 10.3-50.6 8.8-0.5-0.3-5.5-7.3-11-15.5-5.5-8.2-10.6-15.2-11.2-15.6-1.5-0.9-4.8 3.2-4.8 5.9 0 1.1 4.5 10.8 10 21.5 5.5 10.7 9.8 19.7 9.5 20-1.1 1.1-42-2.8-43.1-4.1C584.7 306.1 577.4 293.8 569 279.5 544.9 238.6 540.1 231 538 231c-1.1 0-7 5.7-14.5 14-6.9 7.7-14.3 15.2-16.3 16.8-7.4 5.6-9 7.7-10.2 13.3-1.8 8.9-3 21.3-3.7 39.7-0.4 9.5-1.1 17.6-1.6 17.9-0.5 0.3-21.2 3.2-46.1 6.4-24.9 3.2-46.2 6.1-47.5 6.3-1.7 0.3-3-0.5-5.2-3.2z" id="red" fill="#fe030f"/>
<path d="M876.5 228.8C876.2 228.1 876.1 206.6 876.2 181L876.5 134.5h43 43v47.5 47.5l-42.8 0.3c-33.7 0.2-42.9 0-43.3-1z" id="blue" fill="#0404fe"/>
<path d="M142 436.4C112.6 432.9 93.3 427.4 76.7 417.8 66.6 411.9 56.7 402.1 52.8 394.2 50 388.5 49.5 386.5 49.5 380c0-10.5 3.8-18.2 13.4-27.3 14.3-13.5 34.8-22.2 64.6-27.3 13.8-2.4 46-2.4 60 0 29.6 5.1 50.2 13.8 64.6 27.3 9.6 9 13.4 16.8 13.4 27.3 0 10.5-3.8 18.2-13.4 27.3-14.3 13.5-35.3 22.4-64.1 27.2-9.2 1.5-38.8 2.8-46 1.9z" id="green" fill="#01fe01"/>
</svg>
